<?xml version="1.0" encoding="UTF-8"?>
<svg width="120" height="120" fill="#006BDB" version="1.1" viewBox="0 0 700 700" xmlns="http://www.w3.org/2000/svg" xmlns:xlink="http://www.w3.org/1999/xlink">
 <g>
  <path d="m562.18 461.66h-424.37c-14.223 0-25.816 11.703-25.816 26.039 0 14.223 11.594 25.816 25.816 25.816h424.37c14.223 0 25.816-11.703 25.816-26.039 0-14.223-11.594-25.816-25.816-25.816zm0 44.969h-424.37c-10.473 0-18.93-8.5117-18.93-18.93 0-10.586 8.5117-19.207 18.93-19.207h424.37c10.473 0 18.93 8.5117 18.93 18.93 0.054688 10.637-8.457 19.207-18.93 19.207z"/>
  <path d="m122.3 487.48v0.28125c0 8.5664 6.9453 15.512 15.512 15.512h304.7v-31.246l-304.7-0.003906c-8.625-0.054688-15.512 6.832-15.512 15.457z"/>
  <path d="m350 347.59c20.832 0 40.434-8.1211 55.16-22.793 14.727-14.727 22.793-34.273 22.793-55.16 0-20.832-8.1211-40.434-22.793-55.16-14.727-14.727-34.273-22.793-55.16-22.793-20.832 0-40.434 8.1211-55.16 22.793-30.406 30.406-30.406 79.855 0 110.27 14.727 14.727 34.328 22.848 55.16 22.848zm-47.879-125.83c12.77-12.77 29.793-19.824 47.879-19.824 18.09 0 35.113 7.0547 47.879 19.824 12.77 12.77 19.824 29.793 19.824 47.879 0 18.09-7.0547 35.113-19.824 47.879-12.77 12.77-29.793 19.824-47.879 19.824-18.09 0-35.113-7.0547-47.879-19.824-26.379-26.43-26.379-69.383 0-95.758z"/>
  <path d="m230.11 284.65 13.664 3.6406c0.44922 2.8008 1.0078 5.3203 1.5664 7.7266l-10.754 8.9023c-5.4336 4.3672-6.9453 11.984-3.5859 18.031l9.4648 17.414c1.2305 2.2383 3.0781 4.1992 5.207 5.4336 3.5859 2.1836 7.8945 2.7422 11.93 1.457l13.328-4.3125c0.89453 1.0078 1.793 1.9609 2.6875 2.9102 0.89453 0.95313 1.9023 1.8477 2.9102 2.6875l-4.3672 13.441c-1.2305 3.9766-0.67188 8.2891 1.3984 11.762 1.2891 2.2383 3.2461 4.1445 5.4336 5.3203l17.414 9.4648c6.1055 3.3594 13.719 1.8477 18.031-3.5273l8.9609-10.809c2.4062 0.61719 4.9844 1.1211 7.7266 1.625l3.6406 13.664c1.625 6.3828 7.3906 10.754 14 10.754 0.33594 0 0.61719 0 0.95312-0.054687l19.938-1.3984c6.832-0.61719 12.434-5.9375 13.273-12.711l1.625-13.945c2.3516-0.78516 4.7617-1.6797 7.3906-2.8008l10.414 9.4648c5.0391 4.5938 12.77 4.9844 18.367 0.89453l15.902-11.93c5.543-4.1445 7.3359-11.703 4.3125-17.863l-6.1602-12.656c1.7344-2.1289 3.3047-4.1992 4.8164-6.3281l13.832 2.3516c6.8867 1.1758 13.551-2.7422 15.961-9.1836l6.8867-18.594c2.4062-6.4414-0.11328-13.777-5.9922-17.414l-12.098-7.3359c0.33594-2.8008 0.55859-5.375 0.67188-7.8398l12.938-5.543c6.3281-2.6875 9.8555-9.5742 8.457-16.297l-4.1992-19.488c-1.5117-6.7188-7.6172-11.258-14.449-11.312l-14.168 0.33594c-1.2305-2.4062-2.4648-4.7031-3.7539-6.8867l7.8945-11.648c3.9219-5.7109 3.1914-13.441-1.7344-18.312l-14.055-14.055c-4.9297-4.9297-12.602-5.6016-18.312-1.7344l-11.648 7.8945c-2.1836-1.2891-4.4805-2.5195-6.8867-3.7539l0.33594-14.113c0.16797-6.8867-4.5938-12.938-11.312-14.449l-19.434-4.1992c-6.6641-1.457-13.551 2.1289-16.238 8.3984l-5.6016 12.938c-2.4648 0.11328-5.0977 0.33594-7.8398 0.67188l-7.3359-12.152c-3.5859-5.8789-10.922-8.3438-17.359-5.9375l-18.648 6.8867c-6.4414 2.4062-10.305 9.1289-9.1836 15.961l2.3516 13.777c-2.1289 1.457-4.2578 3.0781-6.3281 4.8164l-12.656-6.1602c-6.1602-3.0781-13.719-1.2891-17.863 4.3125l-11.984 15.961c-4.0312 5.6016-3.6406 13.273 0.95312 18.312l9.4648 10.414c-1.1211 2.6328-2.0703 5.0391-2.8008 7.3906l-13.945 1.625c-6.7773 0.83984-12.098 6.3828-12.711 13.328l-1.3984 19.879c-0.44141 6.9453 4.0391 13.219 10.703 14.898zm0.94922-33.938c0.16797-2.0703 1.6797-3.6953 3.6953-3.9219l17.246-2.0156c2.0703-0.22266 3.8086-1.6797 4.3672-3.6953 1.0625-3.7539 2.5195-7.6719 4.7031-12.375 0.83984-1.8477 0.50391-4.0898-0.89453-5.6016l-11.762-12.879c-1.3438-1.457-1.3984-3.6953-0.28125-5.2656l11.93-15.902c1.2305-1.5664 3.3594-2.1289 5.1523-1.2305l15.68 7.6172c1.8477 0.89453 4.0312 0.61719 5.6016-0.72656 3.5273-3.0781 7.1133-5.7695 10.641-8.0625 1.7344-1.1211 2.6328-3.1367 2.2383-5.1523l-2.9102-17.023c-0.33594-2.0156 0.78516-3.9219 2.6328-4.5938l18.648-6.8867c1.8477-0.72656 3.9766 0 4.9844 1.6797l9.0703 15.008c1.0625 1.793 3.0781 2.7422 5.1523 2.4062 4.8711-0.72656 9.1836-1.0625 13.16-1.0625 2.0703 0 3.9219-1.2305 4.7031-3.0781l6.8867-16.016c0.78516-1.793 2.8008-2.8555 4.6484-2.4062l19.434 4.1992c1.9609 0.44922 3.3047 2.1289 3.2461 4.1445l-0.39062 17.473c-0.054688 2.0156 1.1211 3.9219 2.9688 4.7617 4.3125 2.0156 8.1211 4.0898 11.703 6.3281 1.7344 1.1211 3.9219 1.0625 5.6562-0.054688l14.449-9.7422c1.625-1.1211 3.8633-0.89453 5.207 0.50391l14.055 14.055c1.3984 1.3984 1.625 3.5859 0.50391 5.2656l-9.7422 14.391c-1.1211 1.6797-1.1758 3.9219-0.054688 5.6562 2.2383 3.5273 4.3125 7.3359 6.3281 11.703 0.83984 1.8477 2.6328 3.0234 4.7617 2.9688l17.473-0.39063c1.9023-0.28125 3.7539 1.2891 4.1445 3.2461l4.1992 19.434c0.39063 1.9023-0.61719 3.8633-2.4062 4.6484l-16.016 6.8867c-1.9023 0.83984-3.0781 2.6875-3.0781 4.7031 0 3.9766-0.33594 8.1758-1.0625 13.16-0.28125 2.0703 0.67188 4.0898 2.4062 5.1523l14.953 9.0703c1.6797 1.0625 2.4062 3.1367 1.6797 5.0391l-6.8867 18.594c-0.67188 1.8477-2.6328 2.9688-4.5938 2.6328l-17.078-2.9102c-2.0156-0.39062-4.0312 0.55859-5.1523 2.2383-2.2969 3.5273-4.9844 7.1133-8.0625 10.641-1.3438 1.5664-1.625 3.7539-0.72656 5.6016l7.6172 15.68c0.89453 1.7344 0.33594 3.9219-1.2305 5.0977l-15.848 11.871c-1.625 1.1758-3.8633 1.0625-5.3203-0.22266l-12.879-11.703c-1.5117-1.3984-3.7539-1.7344-5.6016-0.89453-4.7031 2.1289-8.625 3.6406-12.375 4.7031-2.0156 0.55859-3.4727 2.2969-3.6953 4.3672l-2.0156 17.246c-0.22266 2.0156-1.8477 3.5273-3.8633 3.6953l-19.824 1.3984c-1.9609 0.16797-3.8086-1.1211-4.3125-3.0781l-4.5352-16.91c-0.50391-1.9609-2.1836-3.4727-4.1992-3.7539-5.0977-0.72656-9.1836-1.625-13.047-2.6875-0.44922-0.11328-0.95312-0.22266-1.457-0.22266-1.5117 0-2.9688 0.67188-3.9766 1.8477l-11.09 13.441c-1.2305 1.5117-3.3594 1.9609-5.0977 1.0078l-17.473-9.5195c-0.55859-0.28125-1.0625-0.78516-1.457-1.457-0.67188-1.0625-0.78516-2.2969-0.44922-3.4141l5.375-16.633c0.61719-2.0156 0-4.1992-1.5664-5.543-1.6797-1.3984-3.3594-2.8008-4.9297-4.3672-1.5664-1.5664-2.9102-3.2461-4.3672-4.8711-1.3438-1.625-3.5273-2.2383-5.543-1.5664l-16.574 5.375c-1.1758 0.39062-2.4062 0.22266-3.5859-0.50391-0.55859-0.33594-1.0625-0.83984-1.3984-1.457l-9.5195-17.473c-0.95312-1.7344-0.50391-3.8633 1.0625-5.1523l13.383-11.031c1.5664-1.2891 2.2383-3.4141 1.6797-5.375-1.1211-3.8633-1.9609-8.0078-2.6875-13.047-0.28125-2.0156-1.793-3.6953-3.7539-4.2578l-16.969-4.5352c-1.9023-0.50391-3.1914-2.2383-3.0234-4.2578z"/>
  <path d="m347.31 225.57 16.297 10.023c0.83984 0.50391 1.793 0.78516 2.6875 0.78516 1.1758 0 2.3516-0.39062 3.3047-1.1758 0.95313-0.78516 1.5117-1.8477 1.7344-2.9688 12.824 7.4492 21.168 21.223 21.168 36.625 0 17.078-10.137 32.426-25.871 39.09-2.6328 1.1211-3.8086 4.1445-2.6875 6.7188 0.83984 1.9609 2.7422 3.1367 4.7617 3.1367 0.67188 0 1.3438-0.11328 2.0156-0.39062 19.488-8.2891 32.09-27.383 32.09-48.551 0-20.832-12.266-39.426-30.688-47.938l0.55859-0.67188c1.3984-1.6797 1.5664-4.0898 0.39062-5.9922-1.1758-1.8477-3.3594-2.8008-5.543-2.2969l-18.652 4.1992c-2.0156 0.44922-3.5859 2.1289-3.9219 4.1992-0.39062 2.0742 0.5625 4.0898 2.3555 5.207z"/>
  <path d="m327.94 318.36-0.55859 0.67188c-1.3984 1.6797-1.5664 4.0898-0.39062 5.9922 0.95312 1.5664 2.6328 2.4648 4.3672 2.4648 0.39062 0 0.78516-0.054687 1.1211-0.11328l18.648-4.2578c2.0156-0.44922 3.5859-2.1289 3.9219-4.1992 0.33594-2.0703-0.61719-4.1445-2.3516-5.207l-16.297-10.023c-1.8477-1.1758-4.2578-1.0078-5.9922 0.39062-0.95312 0.78516-1.5117 1.8477-1.7344 2.9688-12.824-7.4492-21.168-21.223-21.168-36.625 0-17.078 10.137-32.426 25.871-39.09 2.6328-1.1211 3.8086-4.1445 2.6875-6.7188-1.1211-2.6328-4.1445-3.8633-6.7188-2.6875-19.488 8.2891-32.09 27.383-32.09 48.551-0.007812 20.781 12.258 39.426 30.684 47.883z"/>
 </g>
</svg>
