<svg width="248" height="45" viewBox="0 0 248 45" fill="none" xmlns="http://www.w3.org/2000/svg">
<rect y="15" width="8" height="30" fill="#006BDB"/>
<rect x="11" y="15" width="8" height="30" fill="#006BDB"/>
<rect x="22" width="8" height="30" fill="#478DF7"/>
<rect x="33" y="16" width="8" height="29" fill="#006BDB"/>
<path d="M54.44 22.22H52.52V27H50.46V13.52H54.32C55.8667 13.52 57.0933 13.9333 58 14.76C58.9067 15.5733 59.36 16.62 59.36 17.9C59.36 19.18 58.9 20.22 57.98 21.02C57.0733 21.82 55.8933 22.22 54.44 22.22ZM54.24 15.22H52.52V20.52H54.28C55.2533 20.52 55.9933 20.28 56.5 19.8C57.02 19.32 57.28 18.6867 57.28 17.9C57.28 17.0733 57.02 16.42 56.5 15.94C55.98 15.46 55.2267 15.22 54.24 15.22ZM72.1161 26.34C71.2894 26.8867 70.1428 27.16 68.6761 27.16C66.6628 27.16 65.0161 26.5333 63.7361 25.28C62.4561 24.0267 61.8161 22.3467 61.8161 20.24C61.8161 18.2 62.4561 16.54 63.7361 15.26C65.0294 13.98 66.6628 13.34 68.6361 13.34C70.0761 13.34 71.2294 13.5867 72.0961 14.08V16.1C71.5094 15.78 70.9761 15.56 70.4961 15.44C70.0294 15.3067 69.4294 15.24 68.6961 15.24C67.3494 15.24 66.2228 15.7 65.3161 16.62C64.4228 17.5267 63.9761 18.7333 63.9761 20.24C63.9761 21.7733 64.4228 22.9933 65.3161 23.9C66.2094 24.8067 67.3894 25.26 68.8561 25.26C70.1494 25.26 71.2361 24.9267 72.1161 24.26V26.34ZM85.4273 27H81.1873V13.52H85.3873C87.3873 13.52 89.0273 14.14 90.3073 15.38C91.5873 16.62 92.2273 18.2 92.2273 20.12C92.2273 22.12 91.6207 23.7667 90.4073 25.06C89.2073 26.3533 87.5473 27 85.4273 27ZM85.3473 15.28H83.2873V25.26H85.4073C86.9407 25.26 88.1073 24.78 88.9073 23.82C89.7073 22.86 90.1073 21.6267 90.1073 20.12C90.1073 18.7333 89.674 17.58 88.8073 16.66C87.9407 15.74 86.7873 15.28 85.3473 15.28ZM105.607 15.16C106.714 16.4133 107.267 18.0933 107.267 20.2C107.267 22.3067 106.707 23.9933 105.587 25.26C104.481 26.5267 102.981 27.16 101.087 27.16C99.2072 27.16 97.7005 26.5267 96.5672 25.26C95.4472 23.9933 94.8872 22.3067 94.8872 20.2C94.8872 18.1067 95.4472 16.4267 96.5672 15.16C97.6872 13.8933 99.1872 13.26 101.067 13.26C102.987 13.26 104.501 13.8933 105.607 15.16ZM98.1072 16.54C97.4005 17.4333 97.0472 18.6533 97.0472 20.2C97.0472 21.7467 97.4139 22.9733 98.1472 23.88C98.8805 24.7867 99.8605 25.24 101.087 25.24C102.354 25.24 103.341 24.7933 104.047 23.9C104.754 23.0067 105.107 21.7733 105.107 20.2C105.107 18.64 104.747 17.4133 104.027 16.52C103.321 15.6267 102.334 15.18 101.067 15.18C99.8139 15.18 98.8272 15.6333 98.1072 16.54ZM120.306 26.34C119.479 26.8867 118.333 27.16 116.866 27.16C114.853 27.16 113.206 26.5333 111.926 25.28C110.646 24.0267 110.006 22.3467 110.006 20.24C110.006 18.2 110.646 16.54 111.926 15.26C113.219 13.98 114.853 13.34 116.826 13.34C118.266 13.34 119.419 13.5867 120.286 14.08V16.1C119.699 15.78 119.166 15.56 118.686 15.44C118.219 15.3067 117.619 15.24 116.886 15.24C115.539 15.24 114.413 15.7 113.506 16.62C112.613 17.5267 112.166 18.7333 112.166 20.24C112.166 21.7733 112.613 22.9933 113.506 23.9C114.399 24.8067 115.579 25.26 117.046 25.26C118.339 25.26 119.426 24.9267 120.306 24.26V26.34ZM136.337 21.38H131.437V27H129.377V13.52H137.017V15.24H131.437V19.66H136.337V21.38ZM142.04 27H140.08V16.86H142.04V18.64C142.533 17.3867 143.42 16.76 144.7 16.76C144.887 16.76 145.093 16.78 145.32 16.82V18.74C145.04 18.62 144.727 18.56 144.38 18.56C143.7 18.56 143.14 18.86 142.7 19.46C142.26 20.06 142.04 20.7733 142.04 21.6V27ZM151.037 25.54C151.677 25.54 152.177 25.3667 152.537 25.02C152.911 24.66 153.097 24.1933 153.097 23.62V22.48H151.577C150.831 22.48 150.264 22.6267 149.877 22.92C149.504 23.2133 149.317 23.5867 149.317 24.04C149.317 24.5067 149.464 24.8733 149.757 25.14C150.051 25.4067 150.477 25.54 151.037 25.54ZM153.157 25.8C152.637 26.6533 151.724 27.08 150.417 27.08C149.457 27.08 148.684 26.8067 148.097 26.26C147.524 25.7 147.237 24.9933 147.237 24.14C147.237 23.1667 147.604 22.4133 148.337 21.88C149.071 21.3333 150.097 21.06 151.417 21.06H153.097V20.48C153.097 19.7867 152.931 19.2667 152.597 18.92C152.264 18.56 151.711 18.38 150.937 18.38C149.857 18.38 148.877 18.68 147.997 19.28V17.38C148.784 16.9267 149.824 16.7 151.117 16.7C153.771 16.7 155.097 17.9867 155.097 20.56V27H153.157V25.8ZM167.018 27H165.058V20.6C165.058 19.8933 164.878 19.3533 164.518 18.98C164.171 18.6067 163.704 18.42 163.118 18.42C162.424 18.42 161.831 18.6933 161.338 19.24C160.844 19.7733 160.598 20.5267 160.598 21.5V27H158.638V16.86H160.598V18.6C161.198 17.3467 162.251 16.72 163.758 16.72C164.758 16.72 165.551 17.0267 166.138 17.64C166.724 18.2533 167.018 19.0867 167.018 20.14V27ZM172.513 27H170.553V13H172.513V27ZM174.853 21.7L178.833 27H176.493L172.593 21.7L176.413 16.86H178.713L174.853 21.7ZM186.393 18.38H184.253V27H182.293V18.38H180.673V16.86H182.293V16.08C182.293 15.0267 182.573 14.2 183.133 13.6C183.707 12.9867 184.507 12.68 185.533 12.68C185.907 12.68 186.287 12.7333 186.673 12.84V14.56C186.367 14.4267 186.047 14.36 185.713 14.36C184.74 14.36 184.253 14.94 184.253 16.1V16.86H186.393V18.38ZM197.293 27H195.333V25.26C194.8 26.5 193.746 27.12 192.173 27.12C191.173 27.12 190.38 26.8267 189.793 26.24C189.206 25.64 188.913 24.82 188.913 23.78V16.86H190.893V23.3C190.893 23.9933 191.06 24.5267 191.393 24.9C191.74 25.26 192.213 25.44 192.813 25.44C193.573 25.44 194.18 25.1733 194.633 24.64C195.1 24.1067 195.333 23.3533 195.333 22.38V16.86H197.293V27ZM202.909 27H200.949V16.86H202.909V18.64C203.402 17.3867 204.289 16.76 205.569 16.76C205.755 16.76 205.962 16.78 206.189 16.82V18.74C205.909 18.62 205.595 18.56 205.249 18.56C204.569 18.56 204.009 18.86 203.569 19.46C203.129 20.06 202.909 20.7733 202.909 21.6V27ZM213.946 26.74C213.506 26.98 212.966 27.1 212.326 27.1C210.233 27.1 209.186 26.04 209.186 23.92V18.38H207.606V16.86H209.186V14.38H211.166V16.86H213.826V18.38H211.166V23.96C211.166 24.9333 211.633 25.42 212.566 25.42C213.113 25.42 213.573 25.2733 213.946 24.98V26.74Z" fill="black" fill-opacity="0.7"/>
<path d="M51.988 37H50.872L49.279 30.934H50.242L50.809 33.175L51.475 36.019C51.745 35.011 52.009 34.063 52.267 33.175L52.888 31.024H53.707L54.346 33.184L55.165 36.037C55.387 34.945 55.594 33.994 55.786 33.184L56.317 30.934H57.253L55.768 37H54.661L54.085 35.083L53.302 32.374C53.164 32.944 52.912 33.847 52.546 35.083L51.988 37ZM59.0734 37H58.1824V32.437H59.0734V37ZM59.1814 31.042C59.1814 31.192 59.1274 31.321 59.0194 31.429C58.9114 31.537 58.7794 31.591 58.6234 31.591C58.4674 31.591 58.3354 31.54 58.2274 31.438C58.1254 31.33 58.0744 31.198 58.0744 31.042C58.0744 30.886 58.1254 30.754 58.2274 30.646C58.3354 30.538 58.4674 30.484 58.6234 30.484C58.7794 30.484 58.9114 30.538 59.0194 30.646C59.1274 30.754 59.1814 30.886 59.1814 31.042ZM61.2344 37H60.3524V32.437H61.2344V33.238C61.4564 32.674 61.8554 32.392 62.4314 32.392C62.5154 32.392 62.6084 32.401 62.7104 32.419V33.283C62.5844 33.229 62.4434 33.202 62.2874 33.202C61.9814 33.202 61.7294 33.337 61.5314 33.607C61.3334 33.877 61.2344 34.198 61.2344 34.57V37ZM66.4991 37H65.6171V32.437H66.4991V33.238C66.7211 32.674 67.1201 32.392 67.6961 32.392C67.7801 32.392 67.8731 32.401 67.9751 32.419V33.283C67.8491 33.229 67.7081 33.202 67.5521 33.202C67.2461 33.202 66.9941 33.337 66.7961 33.607C66.5981 33.877 66.4991 34.198 66.4991 34.57V37ZM72.0689 36.757C71.7329 36.949 71.2889 37.045 70.7369 37.045C70.0289 37.045 69.4649 36.832 69.0449 36.406C68.6249 35.98 68.4149 35.422 68.4149 34.732C68.4149 34 68.6069 33.427 68.9909 33.013C69.3749 32.593 69.8639 32.383 70.4579 32.383C71.0399 32.383 71.5019 32.566 71.8439 32.932C72.1859 33.292 72.3569 33.814 72.3569 34.498C72.3569 34.684 72.3389 34.879 72.3029 35.083H69.3059C69.3659 35.479 69.5339 35.782 69.8099 35.992C70.0859 36.202 70.4339 36.307 70.8539 36.307C71.3399 36.307 71.7449 36.193 72.0689 35.965V36.757ZM70.4759 33.112C70.1759 33.112 69.9179 33.223 69.7019 33.445C69.4859 33.661 69.3509 33.976 69.2969 34.39H71.5019V34.228C71.4899 33.886 71.3969 33.616 71.2229 33.418C71.0489 33.214 70.7999 33.112 70.4759 33.112ZM74.2774 38.746H73.3954V32.437H74.2774V33.139C74.5894 32.629 75.0574 32.374 75.6814 32.374C76.2814 32.374 76.7554 32.593 77.1034 33.031C77.4514 33.463 77.6254 34.015 77.6254 34.687C77.6254 35.377 77.4454 35.947 77.0854 36.397C76.7314 36.841 76.2574 37.063 75.6634 37.063C75.0574 37.063 74.5954 36.811 74.2774 36.307V38.746ZM74.2774 34.705C74.2774 35.233 74.4004 35.629 74.6464 35.893C74.8984 36.157 75.1834 36.289 75.5014 36.289C75.8554 36.289 76.1464 36.151 76.3744 35.875C76.6024 35.593 76.7164 35.2 76.7164 34.696C76.7164 34.222 76.6054 33.847 76.3834 33.571C76.1614 33.289 75.8794 33.148 75.5374 33.148C75.1954 33.148 74.8984 33.274 74.6464 33.526C74.4004 33.772 74.2774 34.165 74.2774 34.705ZM80.0921 36.343C80.3801 36.343 80.6051 36.265 80.7671 36.109C80.9351 35.947 81.0191 35.737 81.0191 35.479V34.966H80.3351C79.9991 34.966 79.7441 35.032 79.5701 35.164C79.4021 35.296 79.3181 35.464 79.3181 35.668C79.3181 35.878 79.3841 36.043 79.5161 36.163C79.6481 36.283 79.8401 36.343 80.0921 36.343ZM81.0461 36.46C80.8121 36.844 80.4011 37.036 79.8131 37.036C79.3811 37.036 79.0331 36.913 78.7691 36.667C78.5111 36.415 78.3821 36.097 78.3821 35.713C78.3821 35.275 78.5471 34.936 78.8771 34.696C79.2071 34.45 79.6691 34.327 80.2631 34.327H81.0191V34.066C81.0191 33.754 80.9441 33.52 80.7941 33.364C80.6441 33.202 80.3951 33.121 80.0471 33.121C79.5611 33.121 79.1201 33.256 78.7241 33.526V32.671C79.0781 32.467 79.5461 32.365 80.1281 32.365C81.3221 32.365 81.9191 32.944 81.9191 34.102V37H81.0461V36.46ZM83.9893 37H83.1073V32.437H83.9893V33.238C84.2113 32.674 84.6103 32.392 85.1863 32.392C85.2703 32.392 85.3633 32.401 85.4653 32.419V33.283C85.3393 33.229 85.1983 33.202 85.0423 33.202C84.7363 33.202 84.4843 33.337 84.2863 33.607C84.0883 33.877 83.9893 34.198 83.9893 34.57V37ZM87.0841 37H86.1931V32.437H87.0841V37ZM87.1921 31.042C87.1921 31.192 87.1381 31.321 87.0301 31.429C86.9221 31.537 86.7901 31.591 86.6341 31.591C86.4781 31.591 86.3461 31.54 86.2381 31.438C86.1361 31.33 86.0851 31.198 86.0851 31.042C86.0851 30.886 86.1361 30.754 86.2381 30.646C86.3461 30.538 86.4781 30.484 86.6341 30.484C86.7901 30.484 86.9221 30.538 87.0301 30.646C87.1381 30.754 87.1921 30.886 87.1921 31.042ZM91.8822 33.04C92.2602 33.478 92.4492 34.039 92.4492 34.723C92.4492 35.407 92.2542 35.971 91.8642 36.415C91.4802 36.859 90.9492 37.081 90.2712 37.081C89.5992 37.081 89.0712 36.862 88.6872 36.424C88.3032 35.986 88.1112 35.431 88.1112 34.759C88.1112 34.075 88.3092 33.508 88.7052 33.058C89.1012 32.602 89.6232 32.374 90.2712 32.374C90.9672 32.374 91.5042 32.596 91.8822 33.04ZM89.0292 34.732C89.0292 35.182 89.1402 35.563 89.3622 35.875C89.5842 36.181 89.8872 36.334 90.2712 36.334C90.6792 36.334 90.9882 36.184 91.1982 35.884C91.4142 35.584 91.5222 35.203 91.5222 34.741C91.5222 34.267 91.4202 33.88 91.2162 33.58C91.0122 33.274 90.6942 33.121 90.2622 33.121C89.8722 33.121 89.5692 33.277 89.3532 33.589C89.1372 33.895 89.0292 34.276 89.0292 34.732ZM97.2143 37H96.3323V34.12C96.3323 33.802 96.2513 33.559 96.0893 33.391C95.9333 33.223 95.7233 33.139 95.4593 33.139C95.1473 33.139 94.8803 33.262 94.6583 33.508C94.4363 33.748 94.3253 34.087 94.3253 34.525V37H93.4433V32.437H94.3253V33.22C94.5953 32.656 95.0693 32.374 95.7473 32.374C96.1973 32.374 96.5543 32.512 96.8183 32.788C97.0823 33.064 97.2143 33.439 97.2143 33.913V37ZM101.578 37H100.651V30.934H101.749L103.243 33.472C103.519 33.946 103.768 34.384 103.99 34.786C104.218 35.188 104.374 35.47 104.458 35.632L104.584 35.884C104.548 35.338 104.53 34.537 104.53 33.481V30.934H105.457V37H104.359L102.856 34.471C102.586 34.015 102.337 33.586 102.109 33.184C101.887 32.776 101.731 32.482 101.641 32.302L101.506 32.041C101.554 32.641 101.578 33.448 101.578 34.462V37ZM110.251 33.04C110.629 33.478 110.818 34.039 110.818 34.723C110.818 35.407 110.623 35.971 110.233 36.415C109.849 36.859 109.318 37.081 108.64 37.081C107.968 37.081 107.44 36.862 107.056 36.424C106.672 35.986 106.48 35.431 106.48 34.759C106.48 34.075 106.678 33.508 107.074 33.058C107.47 32.602 107.992 32.374 108.64 32.374C109.336 32.374 109.873 32.596 110.251 33.04ZM107.398 34.732C107.398 35.182 107.509 35.563 107.731 35.875C107.953 36.181 108.256 36.334 108.64 36.334C109.048 36.334 109.357 36.184 109.567 35.884C109.783 35.584 109.891 35.203 109.891 34.741C109.891 34.267 109.789 33.88 109.585 33.58C109.381 33.274 109.063 33.121 108.631 33.121C108.241 33.121 107.938 33.277 107.722 33.589C107.506 33.895 107.398 34.276 107.398 34.732ZM114.206 36.883C114.008 36.991 113.765 37.045 113.477 37.045C112.535 37.045 112.064 36.568 112.064 35.614V33.121H111.353V32.437H112.064V31.321H112.955V32.437H114.152V33.121H112.955V35.632C112.955 36.07 113.165 36.289 113.585 36.289C113.831 36.289 114.038 36.223 114.206 36.091V36.883ZM118.581 36.757C118.245 36.949 117.801 37.045 117.249 37.045C116.541 37.045 115.977 36.832 115.557 36.406C115.137 35.98 114.927 35.422 114.927 34.732C114.927 34 115.119 33.427 115.503 33.013C115.887 32.593 116.376 32.383 116.97 32.383C117.552 32.383 118.014 32.566 118.356 32.932C118.698 33.292 118.869 33.814 118.869 34.498C118.869 34.684 118.851 34.879 118.815 35.083H115.818C115.878 35.479 116.046 35.782 116.322 35.992C116.598 36.202 116.946 36.307 117.366 36.307C117.852 36.307 118.257 36.193 118.581 35.965V36.757ZM116.988 33.112C116.688 33.112 116.43 33.223 116.214 33.445C115.998 33.661 115.863 33.976 115.809 34.39H118.014V34.228C118.002 33.886 117.909 33.616 117.735 33.418C117.561 33.214 117.312 33.112 116.988 33.112ZM120.816 37H119.925V30.637H120.816V33.13C121.14 32.626 121.599 32.374 122.193 32.374C122.769 32.374 123.24 32.59 123.606 33.022C123.972 33.454 124.155 34.027 124.155 34.741C124.155 35.383 123.981 35.932 123.633 36.388C123.285 36.838 122.808 37.063 122.202 37.063C121.596 37.063 121.134 36.811 120.816 36.307V37ZM120.816 34.687C120.816 35.227 120.936 35.629 121.176 35.893C121.416 36.157 121.71 36.289 122.058 36.289C122.394 36.289 122.676 36.148 122.904 35.866C123.132 35.578 123.246 35.209 123.246 34.759C123.246 34.243 123.132 33.847 122.904 33.571C122.676 33.289 122.385 33.148 122.031 33.148C121.719 33.148 121.437 33.274 121.185 33.526C120.939 33.778 120.816 34.165 120.816 34.687ZM128.664 33.04C129.042 33.478 129.231 34.039 129.231 34.723C129.231 35.407 129.036 35.971 128.646 36.415C128.262 36.859 127.731 37.081 127.053 37.081C126.381 37.081 125.853 36.862 125.469 36.424C125.085 35.986 124.893 35.431 124.893 34.759C124.893 34.075 125.091 33.508 125.487 33.058C125.883 32.602 126.405 32.374 127.053 32.374C127.749 32.374 128.286 32.596 128.664 33.04ZM125.811 34.732C125.811 35.182 125.922 35.563 126.144 35.875C126.366 36.181 126.669 36.334 127.053 36.334C127.461 36.334 127.77 36.184 127.98 35.884C128.196 35.584 128.304 35.203 128.304 34.741C128.304 34.267 128.202 33.88 127.998 33.58C127.794 33.274 127.476 33.121 127.044 33.121C126.654 33.121 126.351 33.277 126.135 33.589C125.919 33.895 125.811 34.276 125.811 34.732ZM133.744 33.04C134.122 33.478 134.311 34.039 134.311 34.723C134.311 35.407 134.116 35.971 133.726 36.415C133.342 36.859 132.811 37.081 132.133 37.081C131.461 37.081 130.933 36.862 130.549 36.424C130.165 35.986 129.973 35.431 129.973 34.759C129.973 34.075 130.171 33.508 130.567 33.058C130.963 32.602 131.485 32.374 132.133 32.374C132.829 32.374 133.366 32.596 133.744 33.04ZM130.891 34.732C130.891 35.182 131.002 35.563 131.224 35.875C131.446 36.181 131.749 36.334 132.133 36.334C132.541 36.334 132.85 36.184 133.06 35.884C133.276 35.584 133.384 35.203 133.384 34.741C133.384 34.267 133.282 33.88 133.078 33.58C132.874 33.274 132.556 33.121 132.124 33.121C131.734 33.121 131.431 33.277 131.215 33.589C130.999 33.895 130.891 34.276 130.891 34.732ZM136.188 37H135.306V30.7H136.188V37ZM137.241 34.615L139.032 37H137.979L136.224 34.615L137.943 32.437H138.978L137.241 34.615ZM142.659 35.74C142.659 36.148 142.515 36.469 142.227 36.703C141.939 36.931 141.549 37.045 141.057 37.045C140.517 37.045 140.067 36.955 139.707 36.775V35.938C140.127 36.196 140.562 36.325 141.012 36.325C141.246 36.325 141.426 36.277 141.552 36.181C141.684 36.085 141.75 35.959 141.75 35.803C141.75 35.671 141.699 35.554 141.597 35.452C141.495 35.344 141.39 35.266 141.282 35.218C141.18 35.164 141.003 35.083 140.751 34.975C140.037 34.681 139.68 34.249 139.68 33.679C139.68 33.277 139.83 32.962 140.13 32.734C140.43 32.506 140.805 32.392 141.255 32.392C141.747 32.392 142.131 32.458 142.407 32.59V33.391C142.113 33.217 141.735 33.13 141.273 33.13C141.063 33.13 140.895 33.178 140.769 33.274C140.649 33.37 140.589 33.496 140.589 33.652C140.589 33.694 140.592 33.736 140.598 33.778C140.61 33.814 140.628 33.853 140.652 33.895C140.676 33.931 140.697 33.964 140.715 33.994C140.739 34.018 140.775 34.045 140.823 34.075C140.871 34.105 140.907 34.132 140.931 34.156C140.961 34.174 141.006 34.198 141.066 34.228C141.132 34.258 141.18 34.282 141.21 34.3C141.24 34.312 141.291 34.336 141.363 34.372C141.441 34.402 141.495 34.423 141.525 34.435C141.879 34.591 142.155 34.768 142.353 34.966C142.557 35.158 142.659 35.416 142.659 35.74ZM143.657 38.116H142.883L143.747 36.01H144.836L143.657 38.116ZM151.624 35.344C151.624 35.878 151.435 36.298 151.057 36.604C150.679 36.91 150.19 37.063 149.59 37.063C148.924 37.063 148.372 36.934 147.934 36.676V35.713C148.408 36.067 148.957 36.244 149.581 36.244C149.911 36.244 150.172 36.169 150.364 36.019C150.556 35.863 150.652 35.65 150.652 35.38C150.652 35.218 150.595 35.071 150.481 34.939C150.367 34.801 150.244 34.699 150.112 34.633C149.98 34.561 149.782 34.465 149.518 34.345C149.362 34.273 149.251 34.222 149.185 34.192C149.125 34.162 149.023 34.108 148.879 34.03C148.735 33.952 148.627 33.886 148.555 33.832C148.489 33.778 148.405 33.703 148.303 33.607C148.201 33.511 148.126 33.415 148.078 33.319C148.036 33.223 147.994 33.112 147.952 32.986C147.916 32.854 147.898 32.713 147.898 32.563C147.898 32.047 148.084 31.639 148.456 31.339C148.834 31.039 149.32 30.889 149.914 30.889C150.46 30.889 150.925 30.985 151.309 31.177V32.095C150.907 31.843 150.451 31.717 149.941 31.717C149.611 31.717 149.35 31.792 149.158 31.942C148.972 32.086 148.879 32.278 148.879 32.518C148.879 32.758 148.972 32.95 149.158 33.094C149.344 33.238 149.629 33.394 150.013 33.562C150.265 33.67 150.46 33.763 150.598 33.841C150.742 33.919 150.904 34.03 151.084 34.174C151.27 34.312 151.405 34.48 151.489 34.678C151.579 34.87 151.624 35.092 151.624 35.344ZM158.963 37H158.081V34.12C158.081 33.466 157.817 33.139 157.289 33.139C157.025 33.139 156.788 33.256 156.578 33.49C156.374 33.724 156.272 34.069 156.272 34.525V37H155.39V34.12C155.39 33.466 155.123 33.139 154.589 33.139C154.331 33.139 154.097 33.256 153.887 33.49C153.677 33.724 153.572 34.069 153.572 34.525V37H152.69V32.437H153.572V33.166C153.83 32.638 154.259 32.374 154.859 32.374C155.543 32.374 155.981 32.668 156.173 33.256C156.299 32.974 156.482 32.758 156.722 32.608C156.962 32.452 157.232 32.374 157.532 32.374C158 32.374 158.354 32.512 158.594 32.788C158.84 33.064 158.963 33.445 158.963 33.931V37ZM161.637 36.343C161.925 36.343 162.15 36.265 162.312 36.109C162.48 35.947 162.564 35.737 162.564 35.479V34.966H161.88C161.544 34.966 161.289 35.032 161.115 35.164C160.947 35.296 160.863 35.464 160.863 35.668C160.863 35.878 160.929 36.043 161.061 36.163C161.193 36.283 161.385 36.343 161.637 36.343ZM162.591 36.46C162.357 36.844 161.946 37.036 161.358 37.036C160.926 37.036 160.578 36.913 160.314 36.667C160.056 36.415 159.927 36.097 159.927 35.713C159.927 35.275 160.092 34.936 160.422 34.696C160.752 34.45 161.214 34.327 161.808 34.327H162.564V34.066C162.564 33.754 162.489 33.52 162.339 33.364C162.189 33.202 161.94 33.121 161.592 33.121C161.106 33.121 160.665 33.256 160.269 33.526V32.671C160.623 32.467 161.091 32.365 161.673 32.365C162.867 32.365 163.464 32.944 163.464 34.102V37H162.591V36.46ZM165.534 37H164.652V32.437H165.534V33.238C165.756 32.674 166.155 32.392 166.731 32.392C166.815 32.392 166.908 32.401 167.01 32.419V33.283C166.884 33.229 166.743 33.202 166.587 33.202C166.281 33.202 166.029 33.337 165.831 33.607C165.633 33.877 165.534 34.198 165.534 34.57V37ZM170.096 36.883C169.898 36.991 169.655 37.045 169.367 37.045C168.425 37.045 167.954 36.568 167.954 35.614V33.121H167.243V32.437H167.954V31.321H168.845V32.437H170.042V33.121H168.845V35.632C168.845 36.07 169.055 36.289 169.475 36.289C169.721 36.289 169.928 36.223 170.096 36.091V36.883ZM171.95 38.746H171.068V32.437H171.95V33.139C172.262 32.629 172.73 32.374 173.354 32.374C173.954 32.374 174.428 32.593 174.776 33.031C175.124 33.463 175.298 34.015 175.298 34.687C175.298 35.377 175.118 35.947 174.758 36.397C174.404 36.841 173.93 37.063 173.336 37.063C172.73 37.063 172.268 36.811 171.95 36.307V38.746ZM171.95 34.705C171.95 35.233 172.073 35.629 172.319 35.893C172.571 36.157 172.856 36.289 173.174 36.289C173.528 36.289 173.819 36.151 174.047 35.875C174.275 35.593 174.389 35.2 174.389 34.696C174.389 34.222 174.278 33.847 174.056 33.571C173.834 33.289 173.552 33.148 173.21 33.148C172.868 33.148 172.571 33.274 172.319 33.526C172.073 33.772 171.95 34.165 171.95 34.705ZM180.06 37H179.178V34.12C179.178 33.808 179.097 33.568 178.935 33.4C178.779 33.226 178.572 33.139 178.314 33.139C178.014 33.139 177.747 33.253 177.513 33.481C177.285 33.709 177.171 34.057 177.171 34.525V37H176.289V30.637H177.171V33.22C177.429 32.656 177.9 32.374 178.584 32.374C179.028 32.374 179.385 32.512 179.655 32.788C179.925 33.064 180.06 33.448 180.06 33.94V37ZM184.765 33.04C185.143 33.478 185.332 34.039 185.332 34.723C185.332 35.407 185.137 35.971 184.747 36.415C184.363 36.859 183.832 37.081 183.154 37.081C182.482 37.081 181.954 36.862 181.57 36.424C181.186 35.986 180.994 35.431 180.994 34.759C180.994 34.075 181.192 33.508 181.588 33.058C181.984 32.602 182.506 32.374 183.154 32.374C183.85 32.374 184.387 32.596 184.765 33.04ZM181.912 34.732C181.912 35.182 182.023 35.563 182.245 35.875C182.467 36.181 182.77 36.334 183.154 36.334C183.562 36.334 183.871 36.184 184.081 35.884C184.297 35.584 184.405 35.203 184.405 34.741C184.405 34.267 184.303 33.88 184.099 33.58C183.895 33.274 183.577 33.121 183.145 33.121C182.755 33.121 182.452 33.277 182.236 33.589C182.02 33.895 181.912 34.276 181.912 34.732ZM190.097 37H189.215V34.12C189.215 33.802 189.134 33.559 188.972 33.391C188.816 33.223 188.606 33.139 188.342 33.139C188.03 33.139 187.763 33.262 187.541 33.508C187.319 33.748 187.208 34.087 187.208 34.525V37H186.326V32.437H187.208V33.22C187.478 32.656 187.952 32.374 188.63 32.374C189.08 32.374 189.437 32.512 189.701 32.788C189.965 33.064 190.097 33.439 190.097 33.913V37ZM194.685 36.757C194.349 36.949 193.905 37.045 193.353 37.045C192.645 37.045 192.081 36.832 191.661 36.406C191.241 35.98 191.031 35.422 191.031 34.732C191.031 34 191.223 33.427 191.607 33.013C191.991 32.593 192.48 32.383 193.074 32.383C193.656 32.383 194.118 32.566 194.46 32.932C194.802 33.292 194.973 33.814 194.973 34.498C194.973 34.684 194.955 34.879 194.919 35.083H191.922C191.982 35.479 192.15 35.782 192.426 35.992C192.702 36.202 193.05 36.307 193.47 36.307C193.956 36.307 194.361 36.193 194.685 35.965V36.757ZM193.092 33.112C192.792 33.112 192.534 33.223 192.318 33.445C192.102 33.661 191.967 33.976 191.913 34.39H194.118V34.228C194.106 33.886 194.013 33.616 193.839 33.418C193.665 33.214 193.416 33.112 193.092 33.112ZM198.865 35.74C198.865 36.148 198.721 36.469 198.433 36.703C198.145 36.931 197.755 37.045 197.263 37.045C196.723 37.045 196.273 36.955 195.913 36.775V35.938C196.333 36.196 196.768 36.325 197.218 36.325C197.452 36.325 197.632 36.277 197.758 36.181C197.89 36.085 197.956 35.959 197.956 35.803C197.956 35.671 197.905 35.554 197.803 35.452C197.701 35.344 197.596 35.266 197.488 35.218C197.386 35.164 197.209 35.083 196.957 34.975C196.243 34.681 195.886 34.249 195.886 33.679C195.886 33.277 196.036 32.962 196.336 32.734C196.636 32.506 197.011 32.392 197.461 32.392C197.953 32.392 198.337 32.458 198.613 32.59V33.391C198.319 33.217 197.941 33.13 197.479 33.13C197.269 33.13 197.101 33.178 196.975 33.274C196.855 33.37 196.795 33.496 196.795 33.652C196.795 33.694 196.798 33.736 196.804 33.778C196.816 33.814 196.834 33.853 196.858 33.895C196.882 33.931 196.903 33.964 196.921 33.994C196.945 34.018 196.981 34.045 197.029 34.075C197.077 34.105 197.113 34.132 197.137 34.156C197.167 34.174 197.212 34.198 197.272 34.228C197.338 34.258 197.386 34.282 197.416 34.3C197.446 34.312 197.497 34.336 197.569 34.372C197.647 34.402 197.701 34.423 197.731 34.435C198.085 34.591 198.361 34.768 198.559 34.966C198.763 35.158 198.865 35.416 198.865 35.74ZM205.714 37H204.832V36.217C204.592 36.775 204.118 37.054 203.41 37.054C202.96 37.054 202.603 36.922 202.339 36.658C202.075 36.388 201.943 36.019 201.943 35.551V32.437H202.834V35.335C202.834 35.647 202.909 35.887 203.059 36.055C203.215 36.217 203.428 36.298 203.698 36.298C204.04 36.298 204.313 36.178 204.517 35.938C204.727 35.698 204.832 35.359 204.832 34.921V32.437H205.714V37ZM210.725 37H209.843V34.12C209.843 33.802 209.762 33.559 209.6 33.391C209.444 33.223 209.234 33.139 208.97 33.139C208.658 33.139 208.391 33.262 208.169 33.508C207.947 33.748 207.836 34.087 207.836 34.525V37H206.954V32.437H207.836V33.22C208.106 32.656 208.58 32.374 209.258 32.374C209.708 32.374 210.065 32.512 210.329 32.788C210.593 33.064 210.725 33.439 210.725 33.913V37ZM212.568 34.759C212.568 35.215 212.679 35.584 212.901 35.866C213.129 36.148 213.414 36.289 213.756 36.289C214.104 36.289 214.398 36.157 214.638 35.893C214.878 35.629 214.998 35.227 214.998 34.687C214.998 34.165 214.872 33.778 214.62 33.526C214.374 33.274 214.095 33.148 213.783 33.148C213.429 33.148 213.138 33.289 212.91 33.571C212.682 33.847 212.568 34.243 212.568 34.759ZM215.889 37H214.998V36.307C214.68 36.811 214.215 37.063 213.603 37.063C213.003 37.063 212.529 36.838 212.181 36.388C211.833 35.932 211.659 35.383 211.659 34.741C211.659 34.027 211.842 33.454 212.208 33.022C212.574 32.59 213.045 32.374 213.621 32.374C214.215 32.374 214.674 32.626 214.998 33.13V30.637H215.889V37ZM223.028 31.708H221.435V37H220.508V31.708H218.924V30.934H223.028V31.708ZM225.323 36.343C225.611 36.343 225.836 36.265 225.998 36.109C226.166 35.947 226.25 35.737 226.25 35.479V34.966H225.566C225.23 34.966 224.975 35.032 224.801 35.164C224.633 35.296 224.549 35.464 224.549 35.668C224.549 35.878 224.615 36.043 224.747 36.163C224.879 36.283 225.071 36.343 225.323 36.343ZM226.277 36.46C226.043 36.844 225.632 37.036 225.044 37.036C224.612 37.036 224.264 36.913 224 36.667C223.742 36.415 223.613 36.097 223.613 35.713C223.613 35.275 223.778 34.936 224.108 34.696C224.438 34.45 224.9 34.327 225.494 34.327H226.25V34.066C226.25 33.754 226.175 33.52 226.025 33.364C225.875 33.202 225.626 33.121 225.278 33.121C224.792 33.121 224.351 33.256 223.955 33.526V32.671C224.309 32.467 224.777 32.365 225.359 32.365C226.553 32.365 227.15 32.944 227.15 34.102V37H226.277V36.46ZM229.247 37H228.356V30.637H229.247V33.13C229.571 32.626 230.03 32.374 230.624 32.374C231.2 32.374 231.671 32.59 232.037 33.022C232.403 33.454 232.586 34.027 232.586 34.741C232.586 35.383 232.412 35.932 232.064 36.388C231.716 36.838 231.239 37.063 230.633 37.063C230.027 37.063 229.565 36.811 229.247 36.307V37ZM229.247 34.687C229.247 35.227 229.367 35.629 229.607 35.893C229.847 36.157 230.141 36.289 230.489 36.289C230.825 36.289 231.107 36.148 231.335 35.866C231.563 35.578 231.677 35.209 231.677 34.759C231.677 34.243 231.563 33.847 231.335 33.571C231.107 33.289 230.816 33.148 230.462 33.148C230.15 33.148 229.868 33.274 229.616 33.526C229.37 33.778 229.247 34.165 229.247 34.687ZM234.503 37H233.612V30.637H234.503V37ZM239.184 36.757C238.848 36.949 238.404 37.045 237.852 37.045C237.144 37.045 236.58 36.832 236.16 36.406C235.74 35.98 235.53 35.422 235.53 34.732C235.53 34 235.722 33.427 236.106 33.013C236.49 32.593 236.979 32.383 237.573 32.383C238.155 32.383 238.617 32.566 238.959 32.932C239.301 33.292 239.472 33.814 239.472 34.498C239.472 34.684 239.454 34.879 239.418 35.083H236.421C236.481 35.479 236.649 35.782 236.925 35.992C237.201 36.202 237.549 36.307 237.969 36.307C238.455 36.307 238.86 36.193 239.184 35.965V36.757ZM237.591 33.112C237.291 33.112 237.033 33.223 236.817 33.445C236.601 33.661 236.466 33.976 236.412 34.39H238.617V34.228C238.605 33.886 238.512 33.616 238.338 33.418C238.164 33.214 237.915 33.112 237.591 33.112ZM242.905 36.883C242.707 36.991 242.464 37.045 242.176 37.045C241.234 37.045 240.763 36.568 240.763 35.614V33.121H240.052V32.437H240.763V31.321H241.654V32.437H242.851V33.121H241.654V35.632C241.654 36.07 241.864 36.289 242.284 36.289C242.53 36.289 242.737 36.223 242.905 36.091V36.883ZM246.73 35.74C246.73 36.148 246.586 36.469 246.298 36.703C246.01 36.931 245.62 37.045 245.128 37.045C244.588 37.045 244.138 36.955 243.778 36.775V35.938C244.198 36.196 244.633 36.325 245.083 36.325C245.317 36.325 245.497 36.277 245.623 36.181C245.755 36.085 245.821 35.959 245.821 35.803C245.821 35.671 245.77 35.554 245.668 35.452C245.566 35.344 245.461 35.266 245.353 35.218C245.251 35.164 245.074 35.083 244.822 34.975C244.108 34.681 243.751 34.249 243.751 33.679C243.751 33.277 243.901 32.962 244.201 32.734C244.501 32.506 244.876 32.392 245.326 32.392C245.818 32.392 246.202 32.458 246.478 32.59V33.391C246.184 33.217 245.806 33.13 245.344 33.13C245.134 33.13 244.966 33.178 244.84 33.274C244.72 33.37 244.66 33.496 244.66 33.652C244.66 33.694 244.663 33.736 244.669 33.778C244.681 33.814 244.699 33.853 244.723 33.895C244.747 33.931 244.768 33.964 244.786 33.994C244.81 34.018 244.846 34.045 244.894 34.075C244.942 34.105 244.978 34.132 245.002 34.156C245.032 34.174 245.077 34.198 245.137 34.228C245.203 34.258 245.251 34.282 245.281 34.3C245.311 34.312 245.362 34.336 245.434 34.372C245.512 34.402 245.566 34.423 245.596 34.435C245.95 34.591 246.226 34.768 246.424 34.966C246.628 35.158 246.73 35.416 246.73 35.74Z" fill="black" fill-opacity="0.7"/>
</svg>
