<svg width="242" height="45" viewBox="0 0 242 45" fill="none" xmlns="http://www.w3.org/2000/svg">
<rect y="15" width="8" height="30" fill="#006BDB"/>
<rect x="11" y="15" width="8" height="30" fill="#006BDB"/>
<rect x="22" width="8" height="30" fill="#478DF7"/>
<rect x="33" y="16" width="8" height="29" fill="#006BDB"/>
<path d="M54.44 18.22H52.52V23H50.46V9.52H54.32C55.8667 9.52 57.0933 9.93333 58 10.76C58.9067 11.5733 59.36 12.62 59.36 13.9C59.36 15.18 58.9 16.22 57.98 17.02C57.0733 17.82 55.8933 18.22 54.44 18.22ZM54.24 11.22H52.52V16.52H54.28C55.2533 16.52 55.9933 16.28 56.5 15.8C57.02 15.32 57.28 14.6867 57.28 13.9C57.28 13.0733 57.02 12.42 56.5 11.94C55.98 11.46 55.2267 11.22 54.24 11.22ZM72.1161 22.34C71.2894 22.8867 70.1428 23.16 68.6761 23.16C66.6628 23.16 65.0161 22.5333 63.7361 21.28C62.4561 20.0267 61.8161 18.3467 61.8161 16.24C61.8161 14.2 62.4561 12.54 63.7361 11.26C65.0294 9.98 66.6628 9.34 68.6361 9.34C70.0761 9.34 71.2294 9.58667 72.0961 10.08V12.1C71.5094 11.78 70.9761 11.56 70.4961 11.44C70.0294 11.3067 69.4294 11.24 68.6961 11.24C67.3494 11.24 66.2228 11.7 65.3161 12.62C64.4228 13.5267 63.9761 14.7333 63.9761 16.24C63.9761 17.7733 64.4228 18.9933 65.3161 19.9C66.2094 20.8067 67.3894 21.26 68.8561 21.26C70.1494 21.26 71.2361 20.9267 72.1161 20.26V22.34ZM85.4273 23H81.1873V9.52H85.3873C87.3873 9.52 89.0273 10.14 90.3073 11.38C91.5873 12.62 92.2273 14.2 92.2273 16.12C92.2273 18.12 91.6207 19.7667 90.4073 21.06C89.2073 22.3533 87.5473 23 85.4273 23ZM85.3473 11.28H83.2873V21.26H85.4073C86.9407 21.26 88.1073 20.78 88.9073 19.82C89.7073 18.86 90.1073 17.6267 90.1073 16.12C90.1073 14.7333 89.674 13.58 88.8073 12.66C87.9407 11.74 86.7873 11.28 85.3473 11.28ZM105.607 11.16C106.714 12.4133 107.267 14.0933 107.267 16.2C107.267 18.3067 106.707 19.9933 105.587 21.26C104.481 22.5267 102.981 23.16 101.087 23.16C99.2072 23.16 97.7005 22.5267 96.5672 21.26C95.4472 19.9933 94.8872 18.3067 94.8872 16.2C94.8872 14.1067 95.4472 12.4267 96.5672 11.16C97.6872 9.89333 99.1872 9.26 101.067 9.26C102.987 9.26 104.501 9.89333 105.607 11.16ZM98.1072 12.54C97.4005 13.4333 97.0472 14.6533 97.0472 16.2C97.0472 17.7467 97.4139 18.9733 98.1472 19.88C98.8805 20.7867 99.8605 21.24 101.087 21.24C102.354 21.24 103.341 20.7933 104.047 19.9C104.754 19.0067 105.107 17.7733 105.107 16.2C105.107 14.64 104.747 13.4133 104.027 12.52C103.321 11.6267 102.334 11.18 101.067 11.18C99.8139 11.18 98.8272 11.6333 98.1072 12.54ZM120.306 22.34C119.479 22.8867 118.333 23.16 116.866 23.16C114.853 23.16 113.206 22.5333 111.926 21.28C110.646 20.0267 110.006 18.3467 110.006 16.24C110.006 14.2 110.646 12.54 111.926 11.26C113.219 9.98 114.853 9.34 116.826 9.34C118.266 9.34 119.419 9.58667 120.286 10.08V12.1C119.699 11.78 119.166 11.56 118.686 11.44C118.219 11.3067 117.619 11.24 116.886 11.24C115.539 11.24 114.413 11.7 113.506 12.62C112.613 13.5267 112.166 14.7333 112.166 16.24C112.166 17.7733 112.613 18.9933 113.506 19.9C114.399 20.8067 115.579 21.26 117.046 21.26C118.339 21.26 119.426 20.9267 120.306 20.26V22.34ZM136.337 17.38H131.437V23H129.377V9.52H137.017V11.24H131.437V15.66H136.337V17.38ZM142.04 23H140.08V12.86H142.04V14.64C142.533 13.3867 143.42 12.76 144.7 12.76C144.887 12.76 145.093 12.78 145.32 12.82V14.74C145.04 14.62 144.727 14.56 144.38 14.56C143.7 14.56 143.14 14.86 142.7 15.46C142.26 16.06 142.04 16.7733 142.04 17.6V23ZM151.037 21.54C151.677 21.54 152.177 21.3667 152.537 21.02C152.911 20.66 153.097 20.1933 153.097 19.62V18.48H151.577C150.831 18.48 150.264 18.6267 149.877 18.92C149.504 19.2133 149.317 19.5867 149.317 20.04C149.317 20.5067 149.464 20.8733 149.757 21.14C150.051 21.4067 150.477 21.54 151.037 21.54ZM153.157 21.8C152.637 22.6533 151.724 23.08 150.417 23.08C149.457 23.08 148.684 22.8067 148.097 22.26C147.524 21.7 147.237 20.9933 147.237 20.14C147.237 19.1667 147.604 18.4133 148.337 17.88C149.071 17.3333 150.097 17.06 151.417 17.06H153.097V16.48C153.097 15.7867 152.931 15.2667 152.597 14.92C152.264 14.56 151.711 14.38 150.937 14.38C149.857 14.38 148.877 14.68 147.997 15.28V13.38C148.784 12.9267 149.824 12.7 151.117 12.7C153.771 12.7 155.097 13.9867 155.097 16.56V23H153.157V21.8ZM167.018 23H165.058V16.6C165.058 15.8933 164.878 15.3533 164.518 14.98C164.171 14.6067 163.704 14.42 163.118 14.42C162.424 14.42 161.831 14.6933 161.338 15.24C160.844 15.7733 160.598 16.5267 160.598 17.5V23H158.638V12.86H160.598V14.6C161.198 13.3467 162.251 12.72 163.758 12.72C164.758 12.72 165.551 13.0267 166.138 13.64C166.724 14.2533 167.018 15.0867 167.018 16.14V23ZM172.513 23H170.553V9H172.513V23ZM174.853 17.7L178.833 23H176.493L172.593 17.7L176.413 12.86H178.713L174.853 17.7ZM186.393 14.38H184.253V23H182.293V14.38H180.673V12.86H182.293V12.08C182.293 11.0267 182.573 10.2 183.133 9.6C183.707 8.98667 184.507 8.68 185.533 8.68C185.907 8.68 186.287 8.73333 186.673 8.84V10.56C186.367 10.4267 186.047 10.36 185.713 10.36C184.74 10.36 184.253 10.94 184.253 12.1V12.86H186.393V14.38ZM197.293 23H195.333V21.26C194.8 22.5 193.746 23.12 192.173 23.12C191.173 23.12 190.38 22.8267 189.793 22.24C189.206 21.64 188.913 20.82 188.913 19.78V12.86H190.893V19.3C190.893 19.9933 191.06 20.5267 191.393 20.9C191.74 21.26 192.213 21.44 192.813 21.44C193.573 21.44 194.18 21.1733 194.633 20.64C195.1 20.1067 195.333 19.3533 195.333 18.38V12.86H197.293V23ZM202.909 23H200.949V12.86H202.909V14.64C203.402 13.3867 204.289 12.76 205.569 12.76C205.755 12.76 205.962 12.78 206.189 12.82V14.74C205.909 14.62 205.595 14.56 205.249 14.56C204.569 14.56 204.009 14.86 203.569 15.46C203.129 16.06 202.909 16.7733 202.909 17.6V23ZM213.946 22.74C213.506 22.98 212.966 23.1 212.326 23.1C210.233 23.1 209.186 22.04 209.186 19.92V14.38H207.606V12.86H209.186V10.38H211.166V12.86H213.826V14.38H211.166V19.96C211.166 20.9333 211.633 21.42 212.566 21.42C213.113 21.42 213.573 21.2733 213.946 20.98V22.74Z" fill="black" fill-opacity="0.7"/>
<path d="M51.656 36H50.664L49.248 30.608H50.104L50.608 32.6L51.2 35.128C51.44 34.232 51.6747 33.3893 51.904 32.6L52.456 30.688H53.184L53.752 32.608L54.48 35.144C54.6773 34.1733 54.8613 33.328 55.032 32.608L55.504 30.608H56.336L55.016 36H54.032L53.52 34.296L52.824 31.888C52.7013 32.3947 52.4773 33.1973 52.152 34.296L51.656 36ZM57.9541 36H57.1621V31.944H57.9541V36ZM58.0501 30.704C58.0501 30.8373 58.0021 30.952 57.9061 31.048C57.8101 31.144 57.6928 31.192 57.5541 31.192C57.4155 31.192 57.2981 31.1467 57.2021 31.056C57.1115 30.96 57.0661 30.8427 57.0661 30.704C57.0661 30.5653 57.1115 30.448 57.2021 30.352C57.2981 30.256 57.4155 30.208 57.5541 30.208C57.6928 30.208 57.8101 30.256 57.9061 30.352C58.0021 30.448 58.0501 30.5653 58.0501 30.704ZM59.8751 36H59.0911V31.944H59.8751V32.656C60.0724 32.1547 60.4271 31.904 60.9391 31.904C61.0137 31.904 61.0964 31.912 61.1871 31.928V32.696C61.0751 32.648 60.9497 32.624 60.8111 32.624C60.5391 32.624 60.3151 32.744 60.1391 32.984C59.9631 33.224 59.8751 33.5093 59.8751 33.84V36ZM64.5548 36H63.7708V31.944H64.5548V32.656C64.7521 32.1547 65.1068 31.904 65.6188 31.904C65.6934 31.904 65.7761 31.912 65.8668 31.928V32.696C65.7548 32.648 65.6294 32.624 65.4908 32.624C65.2188 32.624 64.9948 32.744 64.8188 32.984C64.6428 33.224 64.5548 33.5093 64.5548 33.84V36ZM69.5057 35.784C69.207 35.9547 68.8124 36.04 68.3217 36.04C67.6924 36.04 67.191 35.8507 66.8177 35.472C66.4444 35.0933 66.2577 34.5973 66.2577 33.984C66.2577 33.3333 66.4284 32.824 66.7697 32.456C67.111 32.0827 67.5457 31.896 68.0737 31.896C68.591 31.896 69.0017 32.0587 69.3057 32.384C69.6097 32.704 69.7617 33.168 69.7617 33.776C69.7617 33.9413 69.7457 34.1147 69.7137 34.296H67.0497C67.103 34.648 67.2524 34.9173 67.4977 35.104C67.743 35.2907 68.0524 35.384 68.4257 35.384C68.8577 35.384 69.2177 35.2827 69.5057 35.08V35.784ZM68.0897 32.544C67.823 32.544 67.5937 32.6427 67.4017 32.84C67.2097 33.032 67.0897 33.312 67.0417 33.68H69.0017V33.536C68.991 33.232 68.9084 32.992 68.7537 32.816C68.599 32.6347 68.3777 32.544 68.0897 32.544ZM71.4688 37.552H70.6848V31.944H71.4688V32.568C71.7461 32.1147 72.1621 31.888 72.7168 31.888C73.2501 31.888 73.6715 32.0827 73.9808 32.472C74.2901 32.856 74.4448 33.3467 74.4448 33.944C74.4448 34.5573 74.2848 35.064 73.9648 35.464C73.6501 35.8587 73.2288 36.056 72.7008 36.056C72.1621 36.056 71.7515 35.832 71.4688 35.384V37.552ZM71.4688 33.96C71.4688 34.4293 71.5781 34.7813 71.7968 35.016C72.0208 35.2507 72.2741 35.368 72.5568 35.368C72.8715 35.368 73.1301 35.2453 73.3328 35C73.5355 34.7493 73.6368 34.4 73.6368 33.952C73.6368 33.5307 73.5381 33.1973 73.3408 32.952C73.1435 32.7013 72.8928 32.576 72.5888 32.576C72.2848 32.576 72.0208 32.688 71.7968 32.912C71.5781 33.1307 71.4688 33.48 71.4688 33.96ZM76.6374 35.416C76.8934 35.416 77.0934 35.3467 77.2374 35.208C77.3868 35.064 77.4614 34.8773 77.4614 34.648V34.192H76.8534C76.5548 34.192 76.3281 34.2507 76.1734 34.368C76.0241 34.4853 75.9494 34.6347 75.9494 34.816C75.9494 35.0027 76.0081 35.1493 76.1254 35.256C76.2428 35.3627 76.4134 35.416 76.6374 35.416ZM77.4854 35.52C77.2774 35.8613 76.9121 36.032 76.3894 36.032C76.0054 36.032 75.6961 35.9227 75.4614 35.704C75.2321 35.48 75.1174 35.1973 75.1174 34.856C75.1174 34.4667 75.2641 34.1653 75.5574 33.952C75.8508 33.7333 76.2614 33.624 76.7894 33.624H77.4614V33.392C77.4614 33.1147 77.3948 32.9067 77.2614 32.768C77.1281 32.624 76.9068 32.552 76.5974 32.552C76.1654 32.552 75.7734 32.672 75.4214 32.912V32.152C75.7361 31.9707 76.1521 31.88 76.6694 31.88C77.7308 31.88 78.2614 32.3947 78.2614 33.424V36H77.4854V35.52ZM80.1016 36H79.3176V31.944H80.1016V32.656C80.299 32.1547 80.6536 31.904 81.1656 31.904C81.2403 31.904 81.323 31.912 81.4136 31.928V32.696C81.3016 32.648 81.1763 32.624 81.0376 32.624C80.7656 32.624 80.5416 32.744 80.3656 32.984C80.1896 33.224 80.1016 33.5093 80.1016 33.84V36ZM82.8526 36H82.0606V31.944H82.8526V36ZM82.9486 30.704C82.9486 30.8373 82.9006 30.952 82.8046 31.048C82.7086 31.144 82.5912 31.192 82.4526 31.192C82.3139 31.192 82.1966 31.1467 82.1006 31.056C82.0099 30.96 81.9646 30.8427 81.9646 30.704C81.9646 30.5653 82.0099 30.448 82.1006 30.352C82.1966 30.256 82.3139 30.208 82.4526 30.208C82.5912 30.208 82.7086 30.256 82.8046 30.352C82.9006 30.448 82.9486 30.5653 82.9486 30.704ZM87.1175 32.48C87.4535 32.8693 87.6215 33.368 87.6215 33.976C87.6215 34.584 87.4482 35.0853 87.1015 35.48C86.7602 35.8747 86.2882 36.072 85.6855 36.072C85.0882 36.072 84.6188 35.8773 84.2775 35.488C83.9362 35.0987 83.7655 34.6053 83.7655 34.008C83.7655 33.4 83.9415 32.896 84.2935 32.496C84.6455 32.0907 85.1095 31.888 85.6855 31.888C86.3042 31.888 86.7815 32.0853 87.1175 32.48ZM84.5815 33.984C84.5815 34.384 84.6802 34.7227 84.8775 35C85.0748 35.272 85.3442 35.408 85.6855 35.408C86.0482 35.408 86.3228 35.2747 86.5095 35.008C86.7015 34.7413 86.7975 34.4027 86.7975 33.992C86.7975 33.5707 86.7068 33.2267 86.5255 32.96C86.3442 32.688 86.0615 32.552 85.6775 32.552C85.3308 32.552 85.0615 32.6907 84.8695 32.968C84.6775 33.24 84.5815 33.5787 84.5815 33.984ZM91.8571 36H91.0731V33.44C91.0731 33.1573 91.0011 32.9413 90.8571 32.792C90.7185 32.6427 90.5318 32.568 90.2971 32.568C90.0198 32.568 89.7825 32.6773 89.5851 32.896C89.3878 33.1093 89.2891 33.4107 89.2891 33.8V36H88.5051V31.944H89.2891V32.64C89.5291 32.1387 89.9505 31.888 90.5531 31.888C90.9531 31.888 91.2705 32.0107 91.5051 32.256C91.7398 32.5013 91.8571 32.8347 91.8571 33.256V36ZM95.7361 36H94.9121V30.608H95.8881L97.2161 32.864C97.4615 33.2853 97.6828 33.6747 97.8801 34.032C98.0828 34.3893 98.2215 34.64 98.2961 34.784L98.4081 35.008C98.3761 34.5227 98.3601 33.8107 98.3601 32.872V30.608H99.1841V36H98.2081L96.8721 33.752C96.6321 33.3467 96.4108 32.9653 96.2081 32.608C96.0108 32.2453 95.8721 31.984 95.7921 31.824L95.6721 31.592C95.7148 32.1253 95.7361 32.8427 95.7361 33.744V36ZM103.446 32.48C103.782 32.8693 103.95 33.368 103.95 33.976C103.95 34.584 103.776 35.0853 103.43 35.48C103.088 35.8747 102.616 36.072 102.014 36.072C101.416 36.072 100.947 35.8773 100.606 35.488C100.264 35.0987 100.094 34.6053 100.094 34.008C100.094 33.4 100.27 32.896 100.622 32.496C100.974 32.0907 101.438 31.888 102.014 31.888C102.632 31.888 103.11 32.0853 103.446 32.48ZM100.91 33.984C100.91 34.384 101.008 34.7227 101.206 35C101.403 35.272 101.672 35.408 102.014 35.408C102.376 35.408 102.651 35.2747 102.838 35.008C103.03 34.7413 103.126 34.4027 103.126 33.992C103.126 33.5707 103.035 33.2267 102.854 32.96C102.672 32.688 102.39 32.552 102.006 32.552C101.659 32.552 101.39 32.6907 101.198 32.968C101.006 33.24 100.91 33.5787 100.91 33.984ZM106.961 35.896C106.785 35.992 106.569 36.04 106.313 36.04C105.476 36.04 105.057 35.616 105.057 34.768V32.552H104.425V31.944H105.057V30.952H105.849V31.944H106.913V32.552H105.849V34.784C105.849 35.1733 106.036 35.368 106.409 35.368C106.628 35.368 106.812 35.3093 106.961 35.192V35.896ZM110.849 35.784C110.551 35.9547 110.156 36.04 109.665 36.04C109.036 36.04 108.535 35.8507 108.161 35.472C107.788 35.0933 107.601 34.5973 107.601 33.984C107.601 33.3333 107.772 32.824 108.113 32.456C108.455 32.0827 108.889 31.896 109.417 31.896C109.935 31.896 110.345 32.0587 110.649 32.384C110.953 32.704 111.105 33.168 111.105 33.776C111.105 33.9413 111.089 34.1147 111.057 34.296H108.393C108.447 34.648 108.596 34.9173 108.841 35.104C109.087 35.2907 109.396 35.384 109.769 35.384C110.201 35.384 110.561 35.2827 110.849 35.08V35.784ZM109.433 32.544C109.167 32.544 108.937 32.6427 108.745 32.84C108.553 33.032 108.433 33.312 108.385 33.68H110.345V33.536C110.335 33.232 110.252 32.992 110.097 32.816C109.943 32.6347 109.721 32.544 109.433 32.544ZM112.837 36H112.045V30.344H112.837V32.56C113.125 32.112 113.533 31.888 114.061 31.888C114.573 31.888 114.991 32.08 115.317 32.464C115.642 32.848 115.805 33.3573 115.805 33.992C115.805 34.5627 115.65 35.0507 115.341 35.456C115.031 35.856 114.607 36.056 114.069 36.056C113.53 36.056 113.119 35.832 112.837 35.384V36ZM112.837 33.944C112.837 34.424 112.943 34.7813 113.157 35.016C113.37 35.2507 113.631 35.368 113.941 35.368C114.239 35.368 114.49 35.2427 114.693 34.992C114.895 34.736 114.997 34.408 114.997 34.008C114.997 33.5493 114.895 33.1973 114.693 32.952C114.49 32.7013 114.231 32.576 113.917 32.576C113.639 32.576 113.389 32.688 113.165 32.912C112.946 33.136 112.837 33.48 112.837 33.944ZM119.813 32.48C120.149 32.8693 120.317 33.368 120.317 33.976C120.317 34.584 120.143 35.0853 119.797 35.48C119.455 35.8747 118.983 36.072 118.381 36.072C117.783 36.072 117.314 35.8773 116.973 35.488C116.631 35.0987 116.461 34.6053 116.461 34.008C116.461 33.4 116.637 32.896 116.989 32.496C117.341 32.0907 117.805 31.888 118.381 31.888C118.999 31.888 119.477 32.0853 119.813 32.48ZM117.277 33.984C117.277 34.384 117.375 34.7227 117.573 35C117.77 35.272 118.039 35.408 118.381 35.408C118.743 35.408 119.018 35.2747 119.205 35.008C119.397 34.7413 119.493 34.4027 119.493 33.992C119.493 33.5707 119.402 33.2267 119.221 32.96C119.039 32.688 118.757 32.552 118.373 32.552C118.026 32.552 117.757 32.6907 117.565 32.968C117.373 33.24 117.277 33.5787 117.277 33.984ZM124.328 32.48C124.664 32.8693 124.832 33.368 124.832 33.976C124.832 34.584 124.659 35.0853 124.312 35.48C123.971 35.8747 123.499 36.072 122.896 36.072C122.299 36.072 121.83 35.8773 121.488 35.488C121.147 35.0987 120.976 34.6053 120.976 34.008C120.976 33.4 121.152 32.896 121.504 32.496C121.856 32.0907 122.32 31.888 122.896 31.888C123.515 31.888 123.992 32.0853 124.328 32.48ZM121.792 33.984C121.792 34.384 121.891 34.7227 122.088 35C122.286 35.272 122.555 35.408 122.896 35.408C123.259 35.408 123.534 35.2747 123.72 35.008C123.912 34.7413 124.008 34.4027 124.008 33.992C124.008 33.5707 123.918 33.2267 123.736 32.96C123.555 32.688 123.272 32.552 122.888 32.552C122.542 32.552 122.272 32.6907 122.08 32.968C121.888 33.24 121.792 33.5787 121.792 33.984ZM126.5 36H125.716V30.4H126.5V36ZM127.436 33.88L129.028 36H128.092L126.532 33.88L128.06 31.944H128.98L127.436 33.88ZM132.252 34.88C132.252 35.2427 132.124 35.528 131.868 35.736C131.612 35.9387 131.265 36.04 130.828 36.04C130.348 36.04 129.948 35.96 129.628 35.8V35.056C130.001 35.2853 130.388 35.4 130.788 35.4C130.996 35.4 131.156 35.3573 131.268 35.272C131.385 35.1867 131.444 35.0747 131.444 34.936C131.444 34.8187 131.399 34.7147 131.308 34.624C131.217 34.528 131.124 34.4587 131.028 34.416C130.937 34.368 130.78 34.296 130.556 34.2C129.921 33.9387 129.604 33.5547 129.604 33.048C129.604 32.6907 129.737 32.4107 130.004 32.208C130.271 32.0053 130.604 31.904 131.004 31.904C131.441 31.904 131.783 31.9627 132.028 32.08V32.792C131.767 32.6373 131.431 32.56 131.02 32.56C130.833 32.56 130.684 32.6027 130.572 32.688C130.465 32.7733 130.412 32.8853 130.412 33.024C130.412 33.0613 130.415 33.0987 130.42 33.136C130.431 33.168 130.447 33.2027 130.468 33.24C130.489 33.272 130.508 33.3013 130.524 33.328C130.545 33.3493 130.577 33.3733 130.62 33.4C130.663 33.4267 130.695 33.4507 130.716 33.472C130.743 33.488 130.783 33.5093 130.836 33.536C130.895 33.5627 130.937 33.584 130.964 33.6C130.991 33.6107 131.036 33.632 131.1 33.664C131.169 33.6907 131.217 33.7093 131.244 33.72C131.559 33.8587 131.804 34.016 131.98 34.192C132.161 34.3627 132.252 34.592 132.252 34.88ZM133.14 36.992H132.452L133.22 35.12H134.188L133.14 36.992ZM140.221 34.528C140.221 35.0027 140.053 35.376 139.717 35.648C139.381 35.92 138.947 36.056 138.413 36.056C137.821 36.056 137.331 35.9413 136.941 35.712V34.856C137.363 35.1707 137.851 35.328 138.405 35.328C138.699 35.328 138.931 35.2613 139.101 35.128C139.272 34.9893 139.357 34.8 139.357 34.56C139.357 34.416 139.307 34.2853 139.205 34.168C139.104 34.0453 138.995 33.9547 138.877 33.896C138.76 33.832 138.584 33.7467 138.349 33.64C138.211 33.576 138.112 33.5307 138.053 33.504C138 33.4773 137.909 33.4293 137.781 33.36C137.653 33.2907 137.557 33.232 137.493 33.184C137.435 33.136 137.36 33.0693 137.269 32.984C137.179 32.8987 137.112 32.8133 137.069 32.728C137.032 32.6427 136.995 32.544 136.957 32.432C136.925 32.3147 136.909 32.1893 136.909 32.056C136.909 31.5973 137.075 31.2347 137.405 30.968C137.741 30.7013 138.173 30.568 138.701 30.568C139.187 30.568 139.6 30.6533 139.941 30.824V31.64C139.584 31.416 139.179 31.304 138.725 31.304C138.432 31.304 138.2 31.3707 138.029 31.504C137.864 31.632 137.781 31.8027 137.781 32.016C137.781 32.2293 137.864 32.4 138.029 32.528C138.195 32.656 138.448 32.7947 138.789 32.944C139.013 33.04 139.187 33.1227 139.309 33.192C139.437 33.2613 139.581 33.36 139.741 33.488C139.907 33.6107 140.027 33.76 140.101 33.936C140.181 34.1067 140.221 34.304 140.221 34.528ZM146.745 36H145.961V33.44C145.961 32.8587 145.727 32.568 145.257 32.568C145.023 32.568 144.812 32.672 144.625 32.88C144.444 33.088 144.353 33.3947 144.353 33.8V36H143.569V33.44C143.569 32.8587 143.332 32.568 142.857 32.568C142.628 32.568 142.42 32.672 142.233 32.88C142.047 33.088 141.953 33.3947 141.953 33.8V36H141.169V31.944H141.953V32.592C142.183 32.1227 142.564 31.888 143.097 31.888C143.705 31.888 144.095 32.1493 144.265 32.672C144.377 32.4213 144.54 32.2293 144.753 32.096C144.967 31.9573 145.207 31.888 145.473 31.888C145.889 31.888 146.204 32.0107 146.417 32.256C146.636 32.5013 146.745 32.84 146.745 33.272V36ZM149.122 35.416C149.378 35.416 149.578 35.3467 149.722 35.208C149.871 35.064 149.946 34.8773 149.946 34.648V34.192H149.338C149.039 34.192 148.812 34.2507 148.658 34.368C148.508 34.4853 148.434 34.6347 148.434 34.816C148.434 35.0027 148.492 35.1493 148.61 35.256C148.727 35.3627 148.898 35.416 149.122 35.416ZM149.97 35.52C149.762 35.8613 149.396 36.032 148.874 36.032C148.49 36.032 148.18 35.9227 147.946 35.704C147.716 35.48 147.602 35.1973 147.602 34.856C147.602 34.4667 147.748 34.1653 148.042 33.952C148.335 33.7333 148.746 33.624 149.274 33.624H149.946V33.392C149.946 33.1147 149.879 32.9067 149.746 32.768C149.612 32.624 149.391 32.552 149.082 32.552C148.65 32.552 148.258 32.672 147.906 32.912V32.152C148.22 31.9707 148.636 31.88 149.154 31.88C150.215 31.88 150.746 32.3947 150.746 33.424V36H149.97V35.52ZM152.586 36H151.802V31.944H152.586V32.656C152.783 32.1547 153.138 31.904 153.65 31.904C153.725 31.904 153.807 31.912 153.898 31.928V32.696C153.786 32.648 153.661 32.624 153.522 32.624C153.25 32.624 153.026 32.744 152.85 32.984C152.674 33.224 152.586 33.5093 152.586 33.84V36ZM156.641 35.896C156.465 35.992 156.249 36.04 155.993 36.04C155.156 36.04 154.737 35.616 154.737 34.768V32.552H154.105V31.944H154.737V30.952H155.529V31.944H156.593V32.552H155.529V34.784C155.529 35.1733 155.716 35.368 156.089 35.368C156.308 35.368 156.492 35.3093 156.641 35.192V35.896ZM158.289 37.552H157.505V31.944H158.289V32.568C158.566 32.1147 158.982 31.888 159.537 31.888C160.07 31.888 160.492 32.0827 160.801 32.472C161.11 32.856 161.265 33.3467 161.265 33.944C161.265 34.5573 161.105 35.064 160.785 35.464C160.47 35.8587 160.049 36.056 159.521 36.056C158.982 36.056 158.572 35.832 158.289 35.384V37.552ZM158.289 33.96C158.289 34.4293 158.398 34.7813 158.617 35.016C158.841 35.2507 159.094 35.368 159.377 35.368C159.692 35.368 159.95 35.2453 160.153 35C160.356 34.7493 160.457 34.4 160.457 33.952C160.457 33.5307 160.358 33.1973 160.161 32.952C159.964 32.7013 159.713 32.576 159.409 32.576C159.105 32.576 158.841 32.688 158.617 32.912C158.398 33.1307 158.289 33.48 158.289 33.96ZM165.498 36H164.714V33.44C164.714 33.1627 164.642 32.9493 164.498 32.8C164.359 32.6453 164.175 32.568 163.946 32.568C163.679 32.568 163.442 32.6693 163.234 32.872C163.031 33.0747 162.93 33.384 162.93 33.8V36H162.146V30.344H162.93V32.64C163.159 32.1387 163.578 31.888 164.186 31.888C164.58 31.888 164.898 32.0107 165.138 32.256C165.378 32.5013 165.498 32.8427 165.498 33.28V36ZM169.68 32.48C170.016 32.8693 170.184 33.368 170.184 33.976C170.184 34.584 170.011 35.0853 169.664 35.48C169.323 35.8747 168.851 36.072 168.248 36.072C167.651 36.072 167.181 35.8773 166.84 35.488C166.499 35.0987 166.328 34.6053 166.328 34.008C166.328 33.4 166.504 32.896 166.856 32.496C167.208 32.0907 167.672 31.888 168.248 31.888C168.867 31.888 169.344 32.0853 169.68 32.48ZM167.144 33.984C167.144 34.384 167.243 34.7227 167.44 35C167.637 35.272 167.907 35.408 168.248 35.408C168.611 35.408 168.885 35.2747 169.072 35.008C169.264 34.7413 169.36 34.4027 169.36 33.992C169.36 33.5707 169.269 33.2267 169.088 32.96C168.907 32.688 168.624 32.552 168.24 32.552C167.893 32.552 167.624 32.6907 167.432 32.968C167.24 33.24 167.144 33.5787 167.144 33.984ZM174.42 36H173.636V33.44C173.636 33.1573 173.564 32.9413 173.42 32.792C173.281 32.6427 173.094 32.568 172.86 32.568C172.582 32.568 172.345 32.6773 172.148 32.896C171.95 33.1093 171.852 33.4107 171.852 33.8V36H171.068V31.944H171.852V32.64C172.092 32.1387 172.513 31.888 173.116 31.888C173.516 31.888 173.833 32.0107 174.068 32.256C174.302 32.5013 174.42 32.8347 174.42 33.256V36ZM178.498 35.784C178.199 35.9547 177.805 36.04 177.314 36.04C176.685 36.04 176.183 35.8507 175.81 35.472C175.437 35.0933 175.25 34.5973 175.25 33.984C175.25 33.3333 175.421 32.824 175.762 32.456C176.103 32.0827 176.538 31.896 177.066 31.896C177.583 31.896 177.994 32.0587 178.298 32.384C178.602 32.704 178.754 33.168 178.754 33.776C178.754 33.9413 178.738 34.1147 178.706 34.296H176.042C176.095 34.648 176.245 34.9173 176.49 35.104C176.735 35.2907 177.045 35.384 177.418 35.384C177.85 35.384 178.21 35.2827 178.498 35.08V35.784ZM177.082 32.544C176.815 32.544 176.586 32.6427 176.394 32.84C176.202 33.032 176.082 33.312 176.034 33.68H177.994V33.536C177.983 33.232 177.901 32.992 177.746 32.816C177.591 32.6347 177.37 32.544 177.082 32.544ZM182.213 34.88C182.213 35.2427 182.085 35.528 181.829 35.736C181.573 35.9387 181.226 36.04 180.789 36.04C180.309 36.04 179.909 35.96 179.589 35.8V35.056C179.962 35.2853 180.349 35.4 180.749 35.4C180.957 35.4 181.117 35.3573 181.229 35.272C181.346 35.1867 181.405 35.0747 181.405 34.936C181.405 34.8187 181.36 34.7147 181.269 34.624C181.178 34.528 181.085 34.4587 180.989 34.416C180.898 34.368 180.741 34.296 180.517 34.2C179.882 33.9387 179.565 33.5547 179.565 33.048C179.565 32.6907 179.698 32.4107 179.965 32.208C180.232 32.0053 180.565 31.904 180.965 31.904C181.402 31.904 181.744 31.9627 181.989 32.08V32.792C181.728 32.6373 181.392 32.56 180.981 32.56C180.794 32.56 180.645 32.6027 180.533 32.688C180.426 32.7733 180.373 32.8853 180.373 33.024C180.373 33.0613 180.376 33.0987 180.381 33.136C180.392 33.168 180.408 33.2027 180.429 33.24C180.45 33.272 180.469 33.3013 180.485 33.328C180.506 33.3493 180.538 33.3733 180.581 33.4C180.624 33.4267 180.656 33.4507 180.677 33.472C180.704 33.488 180.744 33.5093 180.797 33.536C180.856 33.5627 180.898 33.584 180.925 33.6C180.952 33.6107 180.997 33.632 181.061 33.664C181.13 33.6907 181.178 33.7093 181.205 33.72C181.52 33.8587 181.765 34.016 181.941 34.192C182.122 34.3627 182.213 34.592 182.213 34.88ZM188.301 36H187.517V35.304C187.304 35.8 186.883 36.048 186.253 36.048C185.853 36.048 185.536 35.9307 185.301 35.696C185.067 35.456 184.949 35.128 184.949 34.712V31.944H185.741V34.52C185.741 34.7973 185.808 35.0107 185.941 35.16C186.08 35.304 186.269 35.376 186.509 35.376C186.813 35.376 187.056 35.2693 187.237 35.056C187.424 34.8427 187.517 34.5413 187.517 34.152V31.944H188.301V36ZM192.756 36H191.972V33.44C191.972 33.1573 191.9 32.9413 191.756 32.792C191.617 32.6427 191.43 32.568 191.196 32.568C190.918 32.568 190.681 32.6773 190.484 32.896C190.286 33.1093 190.188 33.4107 190.188 33.8V36H189.404V31.944H190.188V32.64C190.428 32.1387 190.849 31.888 191.452 31.888C191.852 31.888 192.169 32.0107 192.404 32.256C192.638 32.5013 192.756 32.8347 192.756 33.256V36ZM194.394 34.008C194.394 34.4133 194.492 34.7413 194.69 34.992C194.892 35.2427 195.146 35.368 195.45 35.368C195.759 35.368 196.02 35.2507 196.234 35.016C196.447 34.7813 196.554 34.424 196.554 33.944C196.554 33.48 196.442 33.136 196.218 32.912C195.999 32.688 195.751 32.576 195.474 32.576C195.159 32.576 194.9 32.7013 194.698 32.952C194.495 33.1973 194.394 33.5493 194.394 34.008ZM197.346 36H196.554V35.384C196.271 35.832 195.858 36.056 195.314 36.056C194.78 36.056 194.359 35.856 194.05 35.456C193.74 35.0507 193.586 34.5627 193.586 33.992C193.586 33.3573 193.748 32.848 194.074 32.464C194.399 32.08 194.818 31.888 195.33 31.888C195.858 31.888 196.266 32.112 196.554 32.56V30.344H197.346V36ZM203.691 31.296H202.275V36H201.451V31.296H200.043V30.608H203.691V31.296ZM205.731 35.416C205.987 35.416 206.187 35.3467 206.331 35.208C206.481 35.064 206.555 34.8773 206.555 34.648V34.192H205.947C205.649 34.192 205.422 34.2507 205.267 34.368C205.118 34.4853 205.043 34.6347 205.043 34.816C205.043 35.0027 205.102 35.1493 205.219 35.256C205.337 35.3627 205.507 35.416 205.731 35.416ZM206.579 35.52C206.371 35.8613 206.006 36.032 205.483 36.032C205.099 36.032 204.79 35.9227 204.555 35.704C204.326 35.48 204.211 35.1973 204.211 34.856C204.211 34.4667 204.358 34.1653 204.651 33.952C204.945 33.7333 205.355 33.624 205.883 33.624H206.555V33.392C206.555 33.1147 206.489 32.9067 206.355 32.768C206.222 32.624 206.001 32.552 205.691 32.552C205.259 32.552 204.867 32.672 204.515 32.912V32.152C204.83 31.9707 205.246 31.88 205.763 31.88C206.825 31.88 207.355 32.3947 207.355 33.424V36H206.579V35.52ZM209.219 36H208.427V30.344H209.219V32.56C209.507 32.112 209.915 31.888 210.443 31.888C210.955 31.888 211.374 32.08 211.699 32.464C212.025 32.848 212.187 33.3573 212.187 33.992C212.187 34.5627 212.033 35.0507 211.723 35.456C211.414 35.856 210.99 36.056 210.451 36.056C209.913 36.056 209.502 35.832 209.219 35.384V36ZM209.219 33.944C209.219 34.424 209.326 34.7813 209.539 35.016C209.753 35.2507 210.014 35.368 210.323 35.368C210.622 35.368 210.873 35.2427 211.075 34.992C211.278 34.736 211.379 34.408 211.379 34.008C211.379 33.5493 211.278 33.1973 211.075 32.952C210.873 32.7013 210.614 32.576 210.299 32.576C210.022 32.576 209.771 32.688 209.547 32.912C209.329 33.136 209.219 33.48 209.219 33.944ZM213.892 36H213.1V30.344H213.892V36ZM218.053 35.784C217.754 35.9547 217.359 36.04 216.869 36.04C216.239 36.04 215.738 35.8507 215.365 35.472C214.991 35.0933 214.805 34.5973 214.805 33.984C214.805 33.3333 214.975 32.824 215.317 32.456C215.658 32.0827 216.093 31.896 216.621 31.896C217.138 31.896 217.549 32.0587 217.853 32.384C218.157 32.704 218.309 33.168 218.309 33.776C218.309 33.9413 218.293 34.1147 218.261 34.296H215.597C215.65 34.648 215.799 34.9173 216.045 35.104C216.29 35.2907 216.599 35.384 216.973 35.384C217.405 35.384 217.765 35.2827 218.053 35.08V35.784ZM216.637 32.544C216.37 32.544 216.141 32.6427 215.949 32.84C215.757 33.032 215.637 33.312 215.589 33.68H217.549V33.536C217.538 33.232 217.455 32.992 217.301 32.816C217.146 32.6347 216.925 32.544 216.637 32.544ZM221.36 35.896C221.184 35.992 220.968 36.04 220.712 36.04C219.874 36.04 219.456 35.616 219.456 34.768V32.552H218.824V31.944H219.456V30.952H220.248V31.944H221.312V32.552H220.248V34.784C220.248 35.1733 220.434 35.368 220.808 35.368C221.026 35.368 221.21 35.3093 221.36 35.192V35.896ZM224.76 34.88C224.76 35.2427 224.632 35.528 224.376 35.736C224.12 35.9387 223.773 36.04 223.336 36.04C222.856 36.04 222.456 35.96 222.136 35.8V35.056C222.509 35.2853 222.896 35.4 223.296 35.4C223.504 35.4 223.664 35.3573 223.776 35.272C223.893 35.1867 223.952 35.0747 223.952 34.936C223.952 34.8187 223.907 34.7147 223.816 34.624C223.725 34.528 223.632 34.4587 223.536 34.416C223.445 34.368 223.288 34.296 223.064 34.2C222.429 33.9387 222.112 33.5547 222.112 33.048C222.112 32.6907 222.245 32.4107 222.512 32.208C222.779 32.0053 223.112 31.904 223.512 31.904C223.949 31.904 224.291 31.9627 224.536 32.08V32.792C224.275 32.6373 223.939 32.56 223.528 32.56C223.341 32.56 223.192 32.6027 223.08 32.688C222.973 32.7733 222.92 32.8853 222.92 33.024C222.92 33.0613 222.923 33.0987 222.928 33.136C222.939 33.168 222.955 33.2027 222.976 33.24C222.997 33.272 223.016 33.3013 223.032 33.328C223.053 33.3493 223.085 33.3733 223.128 33.4C223.171 33.4267 223.203 33.4507 223.224 33.472C223.251 33.488 223.291 33.5093 223.344 33.536C223.403 33.5627 223.445 33.584 223.472 33.6C223.499 33.6107 223.544 33.632 223.608 33.664C223.677 33.6907 223.725 33.7093 223.752 33.72C224.067 33.8587 224.312 34.016 224.488 34.192C224.669 34.3627 224.76 34.592 224.76 34.88Z" fill="black"/>
</svg>
